%TF.GenerationSoftware,KiCad,Pcbnew,10.0.0*%
%TF.CreationDate,2026-03-25T13:42:20+03:00*%
%TF.ProjectId,ASL_Glove,41534c5f-476c-46f7-9665-2e6b69636164,rev?*%
%TF.SameCoordinates,Original*%
%TF.FileFunction,Soldermask,Top*%
%TF.FilePolarity,Negative*%
%FSLAX46Y46*%
G04 Gerber Fmt 4.6, Leading zero omitted, Abs format (unit mm)*
G04 Created by KiCad (PCBNEW 10.0.0) date 2026-03-25 13:42:20*
%MOMM*%
%LPD*%
G01*
G04 APERTURE LIST*
G04 Aperture macros list*
%AMRoundRect*
0 Rectangle with rounded corners*
0 $1 Rounding radius*
0 $2 $3 $4 $5 $6 $7 $8 $9 X,Y pos of 4 corners*
0 Add a 4 corners polygon primitive as box body*
4,1,4,$2,$3,$4,$5,$6,$7,$8,$9,$2,$3,0*
0 Add four circle primitives for the rounded corners*
1,1,$1+$1,$2,$3*
1,1,$1+$1,$4,$5*
1,1,$1+$1,$6,$7*
1,1,$1+$1,$8,$9*
0 Add four rect primitives between the rounded corners*
20,1,$1+$1,$2,$3,$4,$5,0*
20,1,$1+$1,$4,$5,$6,$7,0*
20,1,$1+$1,$6,$7,$8,$9,0*
20,1,$1+$1,$8,$9,$2,$3,0*%
%AMFreePoly0*
4,1,6,0.725000,-0.725000,-0.725000,-0.725000,-0.725000,0.125000,-0.125000,0.725000,0.725000,0.725000,0.725000,-0.725000,0.725000,-0.725000,$1*%
%AMFreePoly1*
4,1,23,0.500000,-0.750000,0.000000,-0.750000,0.000000,-0.745722,-0.065263,-0.745722,-0.191342,-0.711940,-0.304381,-0.646677,-0.396677,-0.554381,-0.461940,-0.441342,-0.495722,-0.315263,-0.495722,-0.250000,-0.500000,-0.250000,-0.500000,0.250000,-0.495722,0.250000,-0.495722,0.315263,-0.461940,0.441342,-0.396677,0.554381,-0.304381,0.646677,-0.191342,0.711940,-0.065263,0.745722,0.000000,0.745722,
0.000000,0.750000,0.500000,0.750000,0.500000,-0.750000,0.500000,-0.750000,$1*%
%AMFreePoly2*
4,1,23,0.000000,0.745722,0.065263,0.745722,0.191342,0.711940,0.304381,0.646677,0.396677,0.554381,0.461940,0.441342,0.495722,0.315263,0.495722,0.250000,0.500000,0.250000,0.500000,-0.250000,0.495722,-0.250000,0.495722,-0.315263,0.461940,-0.441342,0.396677,-0.554381,0.304381,-0.646677,0.191342,-0.711940,0.065263,-0.745722,0.000000,-0.745722,0.000000,-0.750000,-0.500000,-0.750000,
-0.500000,0.750000,0.000000,0.750000,0.000000,0.745722,0.000000,0.745722,$1*%
G04 Aperture macros list end*
%ADD10RoundRect,0.135000X0.185000X-0.135000X0.185000X0.135000X-0.185000X0.135000X-0.185000X-0.135000X0*%
%ADD11RoundRect,0.140000X0.140000X0.170000X-0.140000X0.170000X-0.140000X-0.170000X0.140000X-0.170000X0*%
%ADD12R,0.800000X0.400000*%
%ADD13R,0.400000X0.800000*%
%ADD14FreePoly0,0.000000*%
%ADD15R,1.450000X1.450000*%
%ADD16R,0.700000X0.700000*%
%ADD17RoundRect,0.140000X-0.170000X0.140000X-0.170000X-0.140000X0.170000X-0.140000X0.170000X0.140000X0*%
%ADD18FreePoly1,0.000000*%
%ADD19FreePoly2,0.000000*%
%ADD20C,1.000000*%
%ADD21RoundRect,0.250000X-0.350000X-0.625000X0.350000X-0.625000X0.350000X0.625000X-0.350000X0.625000X0*%
%ADD22O,1.200000X1.750000*%
%ADD23RoundRect,0.075000X0.075000X-0.350000X0.075000X0.350000X-0.075000X0.350000X-0.075000X-0.350000X0*%
%ADD24RoundRect,0.075000X0.350000X0.075000X-0.350000X0.075000X-0.350000X-0.075000X0.350000X-0.075000X0*%
%ADD25RoundRect,0.140000X-0.140000X-0.170000X0.140000X-0.170000X0.140000X0.170000X-0.140000X0.170000X0*%
%ADD26RoundRect,0.135000X-0.185000X0.135000X-0.185000X-0.135000X0.185000X-0.135000X0.185000X0.135000X0*%
%ADD27RoundRect,0.135000X-0.135000X-0.185000X0.135000X-0.185000X0.135000X0.185000X-0.135000X0.185000X0*%
G04 APERTURE END LIST*
%TO.C,JP1*%
G36*
X131850000Y-77750000D02*
G01*
X132150000Y-77750000D01*
X132150000Y-79250000D01*
X131850000Y-79250000D01*
X131850000Y-77750000D01*
G37*
%TD*%
D10*
%TO.C,R1*%
X141500000Y-78010000D03*
X141500000Y-76990000D03*
%TD*%
D11*
%TO.C,C3*%
X149480000Y-68500000D03*
X148520000Y-68500000D03*
%TD*%
D12*
%TO.C,U1*%
X126100000Y-66700000D03*
X126100000Y-67500000D03*
X126100000Y-68300000D03*
X126100000Y-69100000D03*
X126100000Y-69900000D03*
X126100000Y-70700000D03*
X126100000Y-71500000D03*
X126100000Y-72300000D03*
X126100000Y-73100000D03*
X126100000Y-73900000D03*
X126100000Y-74700000D03*
D13*
X127200000Y-75600000D03*
X128000000Y-75600000D03*
X128800000Y-75600000D03*
X129600000Y-75600000D03*
X130400000Y-75600000D03*
X131200000Y-75600000D03*
X132000000Y-75600000D03*
X132800000Y-75600000D03*
X133600000Y-75600000D03*
X134400000Y-75600000D03*
X135200000Y-75600000D03*
X136000000Y-75600000D03*
X136800000Y-75600000D03*
D12*
X137900000Y-74700000D03*
X137900000Y-73900000D03*
X137900000Y-73100000D03*
X137900000Y-72300000D03*
X137900000Y-71500000D03*
X137900000Y-70700000D03*
X137900000Y-69900000D03*
X137900000Y-69100000D03*
X137900000Y-68300000D03*
X137900000Y-67500000D03*
X137900000Y-66700000D03*
D13*
X136800000Y-65800000D03*
X136000000Y-65800000D03*
X135200000Y-65800000D03*
X134400000Y-65800000D03*
X133600000Y-65800000D03*
X132800000Y-65800000D03*
X132000000Y-65800000D03*
X131200000Y-65800000D03*
X130400000Y-65800000D03*
X129600000Y-65800000D03*
X128800000Y-65800000D03*
X128000000Y-65800000D03*
X127200000Y-65800000D03*
D14*
X130025000Y-68725000D03*
D15*
X130025000Y-70700000D03*
X130025000Y-72675000D03*
X132000000Y-68725000D03*
X132000000Y-70700000D03*
X132000000Y-72675000D03*
X133975000Y-68725000D03*
X133975000Y-70700000D03*
X133975000Y-72675000D03*
D16*
X137950000Y-65750000D03*
X137950000Y-75650000D03*
X126050000Y-75650000D03*
X126050000Y-65750000D03*
%TD*%
D17*
%TO.C,C4*%
X150000000Y-76000000D03*
X150000000Y-76960000D03*
%TD*%
D18*
%TO.C,JP1*%
X131350000Y-78500000D03*
D19*
X132650000Y-78500000D03*
%TD*%
D20*
%TO.C,TP2*%
X146000000Y-63000000D03*
%TD*%
D21*
%TO.C,J1*%
X125000000Y-83050000D03*
D22*
X127000000Y-83050000D03*
%TD*%
D20*
%TO.C,TP4*%
X144500000Y-80000000D03*
%TD*%
D23*
%TO.C,U2*%
X145250000Y-74950000D03*
X145750000Y-74950000D03*
X146250000Y-74950000D03*
X146750000Y-74950000D03*
X147250000Y-74950000D03*
X147750000Y-74950000D03*
D24*
X148450000Y-74250000D03*
X148450000Y-73750000D03*
X148450000Y-73250000D03*
X148450000Y-72750000D03*
X148450000Y-72250000D03*
X148450000Y-71750000D03*
D23*
X147750000Y-71050000D03*
X147250000Y-71050000D03*
X146750000Y-71050000D03*
X146250000Y-71050000D03*
X145750000Y-71050000D03*
X145250000Y-71050000D03*
D24*
X144550000Y-71750000D03*
X144550000Y-72250000D03*
X144550000Y-72750000D03*
X144550000Y-73250000D03*
X144550000Y-73750000D03*
X144550000Y-74250000D03*
%TD*%
D25*
%TO.C,C2*%
X122520000Y-67000000D03*
X123480000Y-67000000D03*
%TD*%
D26*
%TO.C,R2*%
X141500000Y-70490000D03*
X141500000Y-71510000D03*
%TD*%
D25*
%TO.C,C1*%
X122520000Y-69000000D03*
X123480000Y-69000000D03*
%TD*%
D27*
%TO.C,R3*%
X127990000Y-78500000D03*
X129010000Y-78500000D03*
%TD*%
D20*
%TO.C,TP1*%
X146000000Y-60500000D03*
%TD*%
%TO.C,TP3*%
X149500000Y-86000000D03*
%TD*%
M02*
