%TF.GenerationSoftware,KiCad,Pcbnew,10.0.0*%
%TF.CreationDate,2026-03-25T13:42:20+03:00*%
%TF.ProjectId,ASL_Glove,41534c5f-476c-46f7-9665-2e6b69636164,rev?*%
%TF.SameCoordinates,Original*%
%TF.FileFunction,Copper,L2,Bot*%
%TF.FilePolarity,Positive*%
%FSLAX46Y46*%
G04 Gerber Fmt 4.6, Leading zero omitted, Abs format (unit mm)*
G04 Created by KiCad (PCBNEW 10.0.0) date 2026-03-25 13:42:20*
%MOMM*%
%LPD*%
G01*
G04 APERTURE LIST*
G04 Aperture macros list*
%AMRoundRect*
0 Rectangle with rounded corners*
0 $1 Rounding radius*
0 $2 $3 $4 $5 $6 $7 $8 $9 X,Y pos of 4 corners*
0 Add a 4 corners polygon primitive as box body*
4,1,4,$2,$3,$4,$5,$6,$7,$8,$9,$2,$3,0*
0 Add four circle primitives for the rounded corners*
1,1,$1+$1,$2,$3*
1,1,$1+$1,$4,$5*
1,1,$1+$1,$6,$7*
1,1,$1+$1,$8,$9*
0 Add four rect primitives between the rounded corners*
20,1,$1+$1,$2,$3,$4,$5,0*
20,1,$1+$1,$4,$5,$6,$7,0*
20,1,$1+$1,$6,$7,$8,$9,0*
20,1,$1+$1,$8,$9,$2,$3,0*%
G04 Aperture macros list end*
%TA.AperFunction,ComponentPad*%
%ADD10RoundRect,0.250000X-0.350000X-0.625000X0.350000X-0.625000X0.350000X0.625000X-0.350000X0.625000X0*%
%TD*%
%TA.AperFunction,ComponentPad*%
%ADD11O,1.200000X1.750000*%
%TD*%
G04 APERTURE END LIST*
D10*
%TO.P,J1,1,Pin_1_1*%
%TO.N,+3V3*%
X125000000Y-83050000D03*
D11*
%TO.P,J1,2,Pin_2_2*%
%TO.N,GND*%
X127000000Y-83050000D03*
%TD*%
%TA.AperFunction,Conductor*%
%TO.N,GND*%
G36*
X151392606Y-57005523D02*
G01*
X151407604Y-57009927D01*
X151466355Y-57047672D01*
X151467542Y-57049041D01*
X151487407Y-57092504D01*
X151490863Y-57091408D01*
X151493695Y-57100335D01*
X151495082Y-57109294D01*
X151496587Y-57112587D01*
X151496108Y-57115923D01*
X151499500Y-57137831D01*
X151499500Y-89857670D01*
X151494475Y-89892614D01*
X151490070Y-89907612D01*
X151452327Y-89966355D01*
X151450958Y-89967542D01*
X151396097Y-89995018D01*
X151388539Y-89996663D01*
X151362168Y-89999500D01*
X120642330Y-89999500D01*
X120607389Y-89994475D01*
X120592390Y-89990070D01*
X120533644Y-89952327D01*
X120532457Y-89950958D01*
X120504977Y-89896083D01*
X120503332Y-89888521D01*
X120500500Y-89862168D01*
X120500500Y-82374983D01*
X123899500Y-82374983D01*
X123899500Y-83725001D01*
X123899501Y-83725018D01*
X123910000Y-83827796D01*
X123910001Y-83827799D01*
X123965185Y-83994331D01*
X123965186Y-83994334D01*
X124057288Y-84143656D01*
X124181344Y-84267712D01*
X124330666Y-84359814D01*
X124497203Y-84414999D01*
X124599991Y-84425500D01*
X125400008Y-84425499D01*
X125400016Y-84425498D01*
X125400019Y-84425498D01*
X125400027Y-84425497D01*
X125400317Y-84425479D01*
X125401333Y-84425363D01*
X125446459Y-84420753D01*
X125456303Y-84419748D01*
X125456303Y-84419747D01*
X125502797Y-84414999D01*
X125669334Y-84359814D01*
X125818656Y-84267712D01*
X125942712Y-84143656D01*
X126034814Y-83994334D01*
X126089999Y-83827797D01*
X126100500Y-83725009D01*
X126100499Y-82374992D01*
X126089999Y-82272203D01*
X126034814Y-82105666D01*
X125942712Y-81956344D01*
X125818656Y-81832288D01*
X125669334Y-81740186D01*
X125511265Y-81687807D01*
X125508445Y-81686641D01*
X125502792Y-81684999D01*
X125400019Y-81674500D01*
X125400010Y-81674500D01*
X124599998Y-81674500D01*
X124599980Y-81674501D01*
X124599972Y-81674501D01*
X124599953Y-81674503D01*
X124497197Y-81685000D01*
X124497193Y-81685001D01*
X124497032Y-81685056D01*
X124330667Y-81740185D01*
X124330665Y-81740186D01*
X124330663Y-81740187D01*
X124231115Y-81801588D01*
X124181340Y-81832290D01*
X124057290Y-81956340D01*
X123965187Y-82105662D01*
X123965152Y-82105770D01*
X123920300Y-82241123D01*
X123911852Y-82254069D01*
X123910365Y-82268630D01*
X123909962Y-82271686D01*
X123909955Y-82272643D01*
X123899500Y-82374983D01*
X120500500Y-82374983D01*
X120500500Y-65100000D01*
X125400000Y-65100000D01*
X138600000Y-65100000D01*
X138600000Y-59700000D01*
X125400000Y-59700000D01*
X125400000Y-65100000D01*
X120500500Y-65100000D01*
X120500500Y-57142329D01*
X120505523Y-57107393D01*
X120509927Y-57092395D01*
X120547672Y-57033644D01*
X120549041Y-57032457D01*
X120603920Y-57004977D01*
X120611479Y-57003333D01*
X120637832Y-57000500D01*
X151357670Y-57000500D01*
X151392606Y-57005523D01*
G37*
%TD.AperFunction*%
%TD*%
M02*
